<svg xmlns="http://www.w3.org/2000/svg" width="1203.526" height="229" viewBox="0 0 1203.526 229">
  <g id="Group_51" data-name="Group 51" transform="translate(-55 -23)">
    <g id="Group_50" data-name="Group 50" transform="translate(30.267 43.844)">
      <path id="Path_36" data-name="Path 36" d="M252.633,466.9H227.509a10.545,10.545,0,0,0-10.594,9.348,10.347,10.347,0,0,0,10.3,11.348h.754v.033h12.5a1.912,1.912,0,0,1,1.837,1.279,1.8,1.8,0,0,1-1.706,2.263H209.961a10.545,10.545,0,0,0-10.594,9.348,10.347,10.347,0,0,0,10.3,11.348h12.628v.033h17.515a1.912,1.912,0,0,1,1.837,1.279,1.768,1.768,0,0,1-1.706,2.263h-15.12v.033H203.008a10.545,10.545,0,0,0-10.594,9.348,10.347,10.347,0,0,0,10.3,11.348H215.6v-.065h24.14a1.953,1.953,0,0,1,1.673.82,1.82,1.82,0,0,1-1.509,2.788H209.994a10.545,10.545,0,0,0-10.594,9.348,10.347,10.347,0,0,0,10.3,11.348h12.89v-.033h17.219a1.894,1.894,0,0,1,1.64.82,1.82,1.82,0,0,1-1.509,2.788H226.754a10.545,10.545,0,0,0-10.594,9.348,10.347,10.347,0,0,0,10.3,11.348H246.63A12.164,12.164,0,0,0,258.8,572.515V466.87l-6.166.032Zm0,104.858a7.1,7.1,0,0,1-7.085,7.085h-18.99a4.625,4.625,0,0,1-4.657-4.034,4.494,4.494,0,0,1,4.461-4.953h13.185a7.848,7.848,0,0,0,7.937-7.117,7.639,7.639,0,0,0-7.609-8.2H221.408v.033H209.8a4.625,4.625,0,0,1-4.657-4.034,4.494,4.494,0,0,1,4.461-4.953h29.945a7.848,7.848,0,0,0,7.937-7.117,7.639,7.639,0,0,0-7.609-8.2H214.684v.033H202.811a4.625,4.625,0,0,1-4.657-4.034,4.494,4.494,0,0,1,4.461-4.953h29.617v-.033h7.347a7.785,7.785,0,0,0,7.872-7.117A7.668,7.668,0,0,0,239.841,506H222.425v-.033H209.732a4.625,4.625,0,0,1-4.658-4.034,4.494,4.494,0,0,1,4.461-4.953H240.2a7.786,7.786,0,0,0,7.872-7.118,7.668,7.668,0,0,0-7.609-8.167h-.492v-.033H227.279a4.625,4.625,0,0,1-4.658-4.034,4.466,4.466,0,0,1,4.461-4.92h25.452V571.76Z" transform="translate(-167.632 -425.224)" fill="#00416b"/>
      <path id="Path_37" data-name="Path 37" d="M270.772,515.465H248.961v-.033h-15.12a1.8,1.8,0,0,1-1.705-2.263,1.882,1.882,0,0,1,1.837-1.279h17.515v-.033h12.66a10.347,10.347,0,0,0,10.3-11.348,10.519,10.519,0,0,0-10.594-9.348H233.185a1.8,1.8,0,0,1-1.706-2.263,1.883,1.883,0,0,1,1.837-1.279h12.5v-.033h.754a10.347,10.347,0,0,0,10.3-11.348,10.545,10.545,0,0,0-10.594-9.348H215.08V572.535A12.164,12.164,0,0,0,227.248,584.7H247.42a10.347,10.347,0,0,0,10.3-11.348,10.545,10.545,0,0,0-10.594-9.348H233.874a1.83,1.83,0,0,1-1.509-2.788,2.02,2.02,0,0,1,1.64-.82h17.219v.033h12.89a10.347,10.347,0,0,0,10.3-11.348,10.519,10.519,0,0,0-10.594-9.348H233.874a1.82,1.82,0,0,1-1.509-2.788,2.053,2.053,0,0,1,1.706-.82h24.14v.066H271.1a10.347,10.347,0,0,0,10.3-11.348A10.576,10.576,0,0,0,270.772,515.465Zm.1,14.825H259v-.033h-25.19a7.639,7.639,0,0,0-7.609,8.2,7.871,7.871,0,0,0,7.937,7.117h29.978a4.494,4.494,0,0,1,4.461,4.953,4.625,4.625,0,0,1-4.658,4.034H252.307v-.033H233.841a7.639,7.639,0,0,0-7.609,8.2,7.871,7.871,0,0,0,7.937,7.117h13.218a4.494,4.494,0,0,1,4.461,4.953,4.625,4.625,0,0,1-4.657,4.034H228.2a7.076,7.076,0,0,1-7.085-7.085V472.761h25.452a4.483,4.483,0,0,1,4.461,4.92,4.625,4.625,0,0,1-4.658,4.034H233.677v.033h-.492a7.631,7.631,0,0,0-7.609,8.167,7.81,7.81,0,0,0,7.872,7.117h30.667a4.494,4.494,0,0,1,4.461,4.953,4.625,4.625,0,0,1-4.658,4.034H251.224v.033H233.808a7.631,7.631,0,0,0-7.609,8.167,7.81,7.81,0,0,0,7.872,7.117h7.347v.033h29.617a4.494,4.494,0,0,1,4.461,4.953A4.567,4.567,0,0,1,270.871,530.29Z" transform="translate(-115.845 -425.178)" fill="#00416b"/>
      <path id="Path_38" data-name="Path 38" d="M290.431,465.521c0-1.738-1.935-3.181-4.3-3.181H204.367c-2.394,0-4.3,1.41-4.3,3.181,0,1.738,1.935,3.182,4.3,3.182h81.767C288.528,468.67,290.431,467.26,290.431,465.521Z" transform="translate(-150.066 -435.552)" fill="#00416b"/>
    </g>
    <text id="EdifyTalent" transform="translate(195.526 205)" fill="#00416b" font-size="188" font-family="Montserrat-Medium, Montserrat" font-weight="500"><tspan x="0" y="0">EdifyTalent</tspan></text>
  </g>
</svg>
